<?xml version="1.0" encoding="utf-8"?>
<!-- Generator: Adobe Illustrator 25.2.1, SVG Export Plug-In . SVG Version: 6.00 Build 0)  -->
<svg version="1.1" id="Capa_1" xmlns="http://www.w3.org/2000/svg" xmlns:xlink="http://www.w3.org/1999/xlink" x="0px" y="0px"
	 viewBox="0 0 600 228" enable-background="new 0 0 600 228" xml:space="preserve">
<path fill="#FFFFFF" d="M318.082,64.466c0.771,0.33,1.589,0.496,2.417,0.496c0.428,0,0.858-0.045,1.285-0.134
	c3.519-0.742,5.808-4.355,5.102-8.054c-0.342-1.792-1.327-3.337-2.774-4.349c-1.447-1.013-3.181-1.374-4.888-1.015
	c-0.76,0.161-8.425,4.298-12.836,6.717l-0.162,0.09L318.082,64.466z M331.992,52.549c-1.757-9.209-6.819-17.148-14.256-22.354
	c-5.521-3.865-11.908-5.908-18.472-5.908c-2.214,0-4.449,0.235-6.646,0.698c-8.612,1.815-16.082,7.011-21.036,14.629l-0.06,0.092
	l31.563,16.97l0.043,0.023l0.043-0.024c1.455-0.807,14.253-7.891,15.502-8.153c2.44-0.513,4.922,0.002,6.991,1.45
	c2.071,1.449,3.48,3.659,3.968,6.222c0.488,2.56-0.003,5.169-1.383,7.347s-3.481,3.661-5.916,4.174
	c-1.711,0.361-3.477,0.206-5.103-0.44l-14.045-7.367l-0.044-0.024l-4.581,2.715l28.905,15.638l0.046-0.076
	C332.092,70.506,333.683,61.41,331.992,52.549 M280.263,56.129c-0.659-0.238-1.382-0.364-2.089-0.364
	c-0.429,0-0.86,0.046-1.282,0.134c-3.519,0.742-5.808,4.355-5.103,8.054c0.342,1.792,1.327,3.336,2.774,4.349
	c1.082,0.757,2.325,1.15,3.597,1.15c0.428,0,0.861-0.045,1.291-0.135c0.768-0.162,8.382-4.297,12.759-6.716l0.161-0.089
	L280.263,56.129z M325.863,80.685l-30.234-16.453l-0.043-0.023l-13.056,7.073c-1.008,0.524-1.411,0.688-2.528,0.924
	c-2.44,0.512-4.923-0.003-6.991-1.45c-2.07-1.449-3.479-3.658-3.968-6.222c-0.998-5.239,2.274-10.407,7.296-11.521
	c2.181-0.483,4.486-0.023,6.855,1.367l12.219,6.442l0.043,0.022l4.75-2.564l-30.077-16.014l-0.08-0.043l-0.043,0.083
	c-3.895,7.299-5.176,15.847-3.608,24.07c1.757,9.208,6.82,17.147,14.256,22.352c5.557,3.891,11.943,5.908,18.473,5.907
	c2.207,0,4.431-0.23,6.644-0.696c7.995-1.685,15.107-6.358,20.026-13.16L325.863,80.685z M334.738,51.97
	c1.904,9.98-0.003,20.142-5.371,28.614c-5.368,8.473-13.553,14.24-23.047,16.241c-2.375,0.501-4.797,0.755-7.201,0.755
	c-7.115,0-14.038-2.214-20.019-6.401c-8.06-5.643-13.547-14.246-15.45-24.227c-1.904-9.981,0.004-20.143,5.371-28.614
	c5.368-8.473,13.553-14.24,23.047-16.241c2.399-0.505,4.809-0.755,7.201-0.755c7.077,0,13.998,2.185,20.02,6.401
	C327.349,33.386,332.836,41.989,334.738,51.97 M74.968,145.072c-0.443,0-0.815,0.146-1.107,0.436
	c-0.296,0.294-0.446,0.682-0.446,1.154v25.262c0,0.47,0.141,0.856,0.42,1.148c0.279,0.294,0.646,0.442,1.093,0.442
	c0.42,0,0.781-0.156,1.073-0.463c0.285-0.299,0.446-0.67,0.48-1.127v-25.262c0-0.441-0.148-0.82-0.44-1.128
	C75.748,145.228,75.387,145.072,74.968,145.072 M117.835,145.5c-0.252-0.283-0.595-0.427-1.019-0.427
	c-0.394,0-0.729,0.141-0.993,0.42c-0.266,0.28-0.4,0.631-0.4,1.044v21.356l-17.653-22.24c-0.267-0.385-0.665-0.581-1.18-0.581
	c-0.391,0-0.73,0.14-1.008,0.414c-0.283,0.28-0.425,0.661-0.425,1.134v25.47c0,0.386,0.135,0.724,0.4,1.002
	c0.508,0.536,1.383,0.579,1.961,0.006c0.283-0.28,0.426-0.62,0.426-1.008v-21.23l17.602,22.15c0.13,0.136,0.297,0.254,0.498,0.352
	c0.209,0.101,0.429,0.153,0.654,0.153c0.417,0,0.775-0.146,1.066-0.435c0.296-0.294,0.446-0.696,0.446-1.197v-25.345
	C118.209,146.127,118.084,145.779,117.835,145.5L117.835,145.5z M524.701,162.114c-0.778-1.162-1.796-2.072-3.026-2.705
	c-1.203-0.618-2.767-1.228-4.645-1.811c-2.163-0.721-4.322-1.504-5.45-2.34c-1.186-0.878-1.627-1.724-1.627-3.122
	c0-1.37,0.494-2.296,1.707-3.198c1.083-0.804,3.032-1.303,5.087-1.303c1.252,0,2.469,0.272,3.618,0.809
	c1.148,0.537,2.076,1.241,2.775,2.11c0.511,0.539,1.344,0.495,1.943-0.099c0.321-0.321,0.484-0.682,0.484-1.07
	c0-0.412-0.217-0.872-0.661-1.402c-0.875-1.09-2.057-1.941-3.511-2.527c-1.443-0.581-3.006-0.875-4.648-0.875
	c-1.568,0-3.796,0.265-5.345,1.007c-1.403,0.673-2.511,1.612-3.29,2.793c-0.84,1.269-1.183,2.381-1.183,3.838
	c0,1.587,0.315,2.677,1.123,3.889c0.737,1.105,1.712,1.999,2.899,2.658c1.099,0.612,2.907,1.173,4.501,1.669l0.336,0.104
	c1.547,0.525,2.831,1.039,3.817,1.53c0.965,0.48,1.753,1.107,2.346,1.862c0.597,0.761,0.87,1.108,0.87,2.215
	c0,1.361-0.53,2.34-1.77,3.274c-1.203,0.905-2.744,1.364-4.581,1.364c-3.207,0-6.145-1.274-8.069-3.504
	c-0.641-0.671-1.52-0.67-2.13,0.005c-0.302,0.334-0.454,0.712-0.454,1.122c0,0.481,0.194,0.894,0.562,1.213
	c1.393,1.438,2.858,2.512,4.354,3.192c1.394,0.633,3.577,1.026,5.698,1.026c1.806,0,3.442-0.346,4.863-1.029
	c1.428-0.686,2.562-1.639,3.369-2.832c0.857-1.269,1.223-2.415,1.223-3.832C525.884,164.231,525.486,163.286,524.701,162.114
	 M485.565,148.456h-8.931v10.034h9.249c0.852-0.078,1.676-0.385,2.426-0.911c0.758-0.532,2.337-1.636,2.337-4.255
	C490.646,149.331,486.978,148.456,485.565,148.456 M489.25,160.268c-0.341,0.197-0.681,0.364-1.024,0.508l2.888,6.265l1.826,3.749
	c0,0,0.104,0.203,0.171,0.349c0.131,0.286,0.297,1.453-0.653,1.941c-0.098,0.052-0.207,0.092-0.321,0.122
	c-0.147,0.039-0.286,0.057-0.418,0.057c-0.874,0-1.424-0.771-1.608-1.24c-0.612-1.319-1.392-2.963-1.392-2.963l-3.653-7.678h-8.432
	v10.584c0,0.439-0.133,0.809-0.395,1.1c-0.266,0.297-0.616,0.447-1.039,0.447c-0.439,0-0.821-0.143-1.135-0.425
	c-0.329-0.293-0.497-0.671-0.497-1.123V146.95c0-0.44,0.141-0.813,0.42-1.106c0.279-0.293,0.633-0.441,1.054-0.441h10.722
	c1.505,0,2.746,0.327,4.026,1.058c1.23,0.706,2.208,1.69,2.908,2.927c0.649,1.151,1.052,2.198,1.052,3.854
	c0,1.018-0.217,2.561-1.249,4.133C492.005,158.13,490.855,159.34,489.25,160.268 M460.163,148.456c0.416,0,0.769-0.139,1.047-0.414
	c0.283-0.279,0.425-0.647,0.425-1.092c0-0.44-0.141-0.813-0.42-1.106c-0.28-0.293-0.633-0.441-1.052-0.441h-15.621
	c-0.42,0-0.775,0.148-1.053,0.441c-0.279,0.294-0.42,0.666-0.42,1.106v24.698c0,0.442,0.141,0.814,0.42,1.106
	c0.277,0.294,0.632,0.442,1.053,0.442h15.621c0.416,0,0.769-0.14,1.047-0.414c0.283-0.28,0.425-0.647,0.425-1.092
	c0-0.41-0.139-0.774-0.414-1.081h-0.001c-0.28-0.31-0.635-0.468-1.057-0.468h-14.029v-9.754h12.241c0.417,0,0.769-0.14,1.048-0.414
	c0.282-0.279,0.425-0.647,0.425-1.093c0-0.44-0.141-0.813-0.42-1.106c-0.28-0.293-0.634-0.441-1.053-0.441h-12.241v-8.877
	L460.163,148.456L460.163,148.456z M430.315,145.726c-0.291-0.271-0.661-0.408-1.1-0.408c-0.694,0-1.195,0.336-1.456,0.986
	l-7.454,21.147l-6.361-16.337c-0.125-0.297-0.311-0.54-0.548-0.724c-0.256-0.196-0.552-0.276-0.846-0.245
	c-0.421-0.021-1.022,0.124-1.387,0.976l-6.4,16.335l-7.529-21.144c-0.101-0.315-0.287-0.564-0.554-0.741
	c-0.566-0.371-1.332-0.345-1.935,0.167c-0.345,0.295-0.521,0.688-0.521,1.169c0,0.211,0.051,0.425,0.137,0.604l8.766,24.659
	c0.068,0.326,0.235,0.583,0.495,0.766c0.245,0.171,0.518,0.258,0.812,0.258c0.662,0,1.162-0.333,1.451-0.975l6.61-16.709
	l6.606,16.698c0.158,0.45,0.539,0.987,1.456,0.987c0.294,0,0.567-0.087,0.812-0.258c0.252-0.177,0.429-0.425,0.524-0.727
	l8.792-24.757l0.082-0.588c0-0.475-0.152-0.858-0.451-1.138L430.315,145.726z M379.54,153.862c-0.885-1.847-2.133-3.304-3.709-4.327
	c-1.576-1.024-3.403-1.542-5.431-1.542c-2.028,0-3.856,0.519-5.431,1.542c-1.576,1.024-2.824,2.48-3.708,4.327
	c-0.907,1.891-1.213,3.241-1.213,5.349c0,2.135,0.295,3.436,1.213,5.349c0.885,1.847,2.132,3.304,3.708,4.328
	c1.575,1.023,3.402,1.542,5.431,1.542c2.03,0,3.858-0.519,5.431-1.542c1.576-1.024,2.824-2.479,3.709-4.327
	c0.913-1.906,1.207-3.206,1.207-5.349C380.746,157.015,380.476,155.815,379.54,153.862 M382.244,152.318
	c1.171,2.349,1.607,4.217,1.607,6.892c0,2.578-0.465,4.564-1.607,6.851c-1.156,2.318-2.781,4.162-4.827,5.479
	c-2.048,1.318-4.409,1.984-7.018,1.984c-2.608,0-4.97-0.667-7.018-1.984c-2.046-1.316-3.671-3.159-4.827-5.479
	c-1.175-2.352-1.612-4.209-1.612-6.851c0-2.67,0.437-4.539,1.612-6.892c1.157-2.32,2.782-4.157,4.829-5.46
	c2.048-1.302,4.408-1.962,7.016-1.962s4.968,0.66,7.016,1.962C379.463,148.163,381.087,150,382.244,152.318 M348.466,145.816
	c-0.279-0.274-0.63-0.414-1.046-0.414h-20.996c-0.416,0-0.769,0.14-1.048,0.414c-0.283,0.281-0.425,0.634-0.425,1.05
	c0,0.446,0.143,0.813,0.425,1.092c0.278,0.276,0.63,0.415,1.048,0.415h8.985v23.604c0,0.444,0.142,0.817,0.42,1.106
	c0.276,0.293,0.644,0.442,1.093,0.442c0.417,0,0.777-0.146,1.066-0.435c0.296-0.292,0.446-0.667,0.446-1.112v-23.604h8.986
	c0.412,0,0.761-0.13,1.039-0.388c0.287-0.266,0.433-0.629,0.433-1.077C348.893,146.464,348.749,146.097,348.466,145.816z
	 M297.133,145.072c-0.485,0-0.907,0.234-1.262,0.708l-7.796,11.44l-7.981-11.428c-0.289-0.471-0.714-0.72-1.23-0.72
	c-0.389,0-0.745,0.152-1.062,0.452c-0.325,0.307-0.489,0.676-0.489,1.097c0,0.407,0.13,0.768,0.37,1.051l8.842,12.696v11.743
	c0,0.442,0.141,0.814,0.419,1.106c0.278,0.294,0.632,0.442,1.053,0.442c0.416,0,0.775-0.146,1.066-0.435
	c0.296-0.293,0.446-0.667,0.446-1.113v-11.785l8.801-12.739l0.024-0.041c0.181-0.378,0.269-0.682,0.269-0.925
	c0-0.383-0.146-0.739-0.434-1.06C297.878,145.237,297.529,145.072,297.133,145.072 M268.052,145.755
	c-0.279-0.275-0.63-0.414-1.047-0.414H246.01c-0.418,0-0.77,0.14-1.047,0.415c-0.282,0.279-0.425,0.632-0.425,1.05
	c0,0.445,0.143,0.813,0.425,1.092c0.277,0.275,0.629,0.414,1.047,0.414h8.986v23.672c0,0.443,0.141,0.815,0.419,1.106
	c0.279,0.293,0.646,0.441,1.093,0.441c0.418,0,0.777-0.146,1.066-0.434c0.297-0.293,0.446-0.667,0.446-1.113v-23.672h8.986
	c0.412,0,0.762-0.13,1.04-0.388c0.287-0.266,0.432-0.629,0.432-1.077C268.477,146.403,268.335,146.036,268.052,145.755
	L268.052,145.755z M230.967,145.072c-0.442,0-0.814,0.146-1.106,0.435c-0.296,0.294-0.446,0.682-0.446,1.155v25.262
	c0,0.47,0.141,0.857,0.42,1.148c0.277,0.294,0.645,0.442,1.092,0.442c0.421,0,0.781-0.156,1.073-0.463
	c0.286-0.3,0.447-0.671,0.48-1.127v-25.262c0-0.441-0.148-0.82-0.439-1.128C231.748,145.228,231.387,145.072,230.967,145.072
	 M211.241,145.5c-0.252-0.283-0.595-0.427-1.019-0.427c-0.394,0-0.729,0.141-0.993,0.42c-0.266,0.28-0.4,0.632-0.4,1.044v21.356
	l-17.654-22.24c-0.266-0.385-0.664-0.581-1.18-0.581c-0.391,0-0.73,0.14-1.007,0.414c-0.283,0.281-0.425,0.662-0.425,1.134v25.47
	c0,0.386,0.134,0.724,0.4,1.002c0.507,0.535,1.38,0.579,1.961,0.006c0.283-0.28,0.425-0.62,0.425-1.008v-21.23l17.602,22.15
	c0.129,0.135,0.297,0.254,0.499,0.352c0.209,0.101,0.429,0.153,0.653,0.153c0.417,0,0.776-0.146,1.067-0.435
	c0.296-0.293,0.445-0.695,0.445-1.197v-25.345C211.615,146.127,211.489,145.778,211.241,145.5L211.241,145.5z M169.576,145.072
	c-0.442,0-0.815,0.146-1.107,0.436c-0.296,0.294-0.445,0.682-0.445,1.154v25.262c0,0.47,0.141,0.857,0.42,1.148
	c0.278,0.294,0.645,0.442,1.093,0.442c0.42,0,0.78-0.156,1.072-0.463c0.285-0.299,0.447-0.67,0.48-1.127v-25.262
	c0-0.441-0.148-0.82-0.439-1.128C170.357,145.228,169.996,145.072,169.576,145.072 M153.748,145.838
	c0.279,0.294,0.42,0.666,0.42,1.106c0,0.413-0.141,0.771-0.42,1.065c-0.279,0.293-0.633,0.441-1.053,0.441h-13.466v9.886h11.679
	c0.416,0,0.768,0.14,1.046,0.415c0.283,0.281,0.426,0.648,0.426,1.092c0,0.445-0.143,0.813-0.426,1.092
	c-0.277,0.275-0.63,0.414-1.046,0.414h-11.679v10.541c0,0.441-0.141,0.814-0.42,1.106c-0.279,0.293-0.634,0.441-1.053,0.441
	c-0.447,0-0.814-0.148-1.093-0.441c-0.279-0.292-0.42-0.664-0.42-1.106v-24.947c0-0.44,0.141-0.813,0.42-1.106
	c0.28-0.293,0.634-0.441,1.053-0.441h14.979C153.115,145.396,153.469,145.545,153.748,145.838L153.748,145.838z"/>
</svg>
